<?xml version="1.0" encoding="UTF-8"?>
<svg id="Layer_3" xmlns="http://www.w3.org/2000/svg" version="1.1" viewBox="0 0 512 512">
  <!-- Generator: Adobe Illustrator 29.4.0, SVG Export Plug-In . SVG Version: 2.1.0 Build 152)  -->
  <defs>
    <style>
      .st0 {
        fill: #58c1a4;
      }

      .st1 {
        fill: none;
        stroke: #58c1a4;
        stroke-miterlimit: 10;
        stroke-width: 15px;
      }
    </style>
  </defs>
  <path class="st0" d="M256,15c32.5,0,64.1,6.4,93.8,18.9,28.7,12.1,54.5,29.5,76.6,51.7,22.1,22.1,39.5,47.9,51.7,76.6,12.6,29.7,18.9,61.3,18.9,93.8s-6.4,64.1-18.9,93.8c-12.1,28.7-29.5,54.5-51.7,76.6-22.1,22.1-47.9,39.5-76.6,51.7-29.7,12.6-61.3,18.9-93.8,18.9s-64.1-6.4-93.8-18.9c-28.7-12.1-54.5-29.5-76.6-51.7-22.1-22.1-39.5-47.9-51.7-76.6-12.6-29.7-18.9-61.3-18.9-93.8s6.4-64.1,18.9-93.8c12.1-28.7,29.5-54.5,51.7-76.6,22.1-22.1,47.9-39.5,76.6-51.7,29.7-12.6,61.3-18.9,93.8-18.9M256,0C114.6,0,0,114.6,0,256s114.6,256,256,256,256-114.6,256-256S397.4,0,256,0h0Z"/>
  <g id="Layer_2">
    <polyline class="st1" points="133.1 254.8 239.3 342.1 378.9 169.9"/>
  </g>
</svg>